<?xml version="1.0" standalone="no"?>
<!DOCTYPE svg PUBLIC "-//W3C//DTD SVG 20010904//EN"
 "http://www.w3.org/TR/2001/REC-SVG-20010904/DTD/svg10.dtd">
<svg version="1.0" xmlns="http://www.w3.org/2000/svg"
 width="498.000000pt" height="89.000000pt" viewBox="0 0 498.000000 89.000000"
 preserveAspectRatio="xMidYMid meet">

<g transform="translate(0.000000,89.000000) scale(0.100000,-0.100000)"
fill="#000000" stroke="none">
<path d="M203 842 c-12 -9 -28 -32 -34 -49 -9 -28 -8 -38 8 -65 20 -35 77 -72
128 -83 27 -7 25 -4 -16 24 -61 41 -81 65 -81 96 0 57 56 74 97 29 14 -15 33
-49 44 -78 18 -46 20 -48 20 -20 1 47 -28 122 -56 144 -31 24 -80 25 -110 2z"/>
<path d="M507 800 c-28 -22 -61 -72 -72 -110 -6 -18 6 -10 45 33 69 75 113 78
134 10 10 -32 -33 -69 -103 -91 -52 -15 -54 -17 -24 -20 76 -8 173 47 173 98
0 29 -26 77 -49 90 -31 16 -76 12 -104 -10z"/>
<path d="M362 618 c-21 -21 -13 -28 33 -28 43 0 45 1 35 20 -12 22 -49 27 -68
8z"/>
<path d="M310 315 l0 -255 85 0 85 0 0 255 0 255 -85 0 -85 0 0 -255z"/>
<path d="M30 475 l0 -85 125 0 125 0 0 85 0 85 -125 0 -125 0 0 -85z"/>
<path d="M500 475 l0 -85 120 0 120 0 0 85 0 85 -120 0 -120 0 0 -85z"/>
<path d="M60 210 l0 -150 110 0 110 0 0 150 0 150 -110 0 -110 0 0 -150z"/>
<path d="M500 210 l0 -150 95 0 95 0 0 150 0 150 -95 0 -95 0 0 -150z"/>
</g>
</svg>
